# xmcd CD database file
#
# Track frame offsets:
#	150
#	17412
#	55205
#	79790
#	89982
#	103202
#	130917
#	151037
#	178452
#	210620
#	233102
#	239830
#	257612
#	312189
#
# Disc length: 4502 seconds
#
# Revision: 7
# Processed by: cddbd v1.5.1PL0 Copyright (c) Steve Scherf et al.
# Submitted via: CdAid (MTCDDB.DLL V2003.01.23)
#
DISCID=c111940e
DTITLE=Erykah Badu - Live
DYEAR=1997
DGENRE=Rock
TTITLE0=Rimshot
TTITLE1=Other Side Of The Game
TTITLE2=On and On
TTITLE3=Reprise
TTITLE4=Apple Tree
TTITLE5=Ye Yo
TTITLE6=Searching
TTITLE7=Boogie Nights/All Night
TTITLE8=Certainly
TTITLE9=Stay
TTITLE10=Next Lifetime (Interlude)
TTITLE11=Tyrone
TTITLE12=Next Lifetime
TTITLE13=Tyrone (Extended Version)
EXTD=ID3G:  17 YEAR: 1997
EXTT0=
EXTT1=
EXTT2=
EXTT3=
EXTT4=
EXTT5=
EXTT6=
EXTT7=
EXTT8=
EXTT9=
EXTT10=
EXTT11=
EXTT12=
EXTT13=
PLAYORDER=
